<svg width="307" height="67" viewBox="0 0 307 67" fill="none" xmlns="http://www.w3.org/2000/svg">
<mask id="path-1-inside-1_760_3" fill="white">
<path d="M31 33.7998L20.667 40V36.7656H0V30.835H20.667V27.5996L31 33.7998Z"/>
</mask>
<path d="M31 33.7998L31.5145 34.6573L32.9436 33.7998L31.5145 32.9423L31 33.7998ZM20.667 40H19.667V41.7662L21.1815 40.8575L20.667 40ZM20.667 36.7656H21.667V35.7656H20.667V36.7656ZM0 36.7656H-1V37.7656H0V36.7656ZM0 30.835V29.835H-1V30.835H0ZM20.667 30.835V31.835H21.667V30.835H20.667ZM20.667 27.5996L21.1815 26.7421L19.667 25.8334V27.5996H20.667ZM31 33.7998L30.4855 32.9423L20.1525 39.1425L20.667 40L21.1815 40.8575L31.5145 34.6573L31 33.7998ZM20.667 40H21.667V36.7656H20.667H19.667V40H20.667ZM20.667 36.7656V35.7656H0V36.7656V37.7656H20.667V36.7656ZM0 36.7656H1V30.835H0H-1V36.7656H0ZM0 30.835V31.835H20.667V30.835V29.835H0V30.835ZM20.667 30.835H21.667V27.5996H20.667H19.667V30.835H20.667ZM20.667 27.5996L20.1525 28.4571L30.4855 34.6573L31 33.7998L31.5145 32.9423L21.1815 26.7421L20.667 27.5996Z" fill="black" mask="url(#path-1-inside-1_760_3)"/>
<mask id="path-3-inside-2_760_3" fill="white">
<path d="M31.4762 32.3987L22.3864 24.4874L25.4625 23.4879L19.0761 3.83245L24.7165 1.99978L31.1029 21.6553L34.1799 20.6555L31.4762 32.3987Z"/>
</mask>
<path d="M31.4762 32.3987L30.8197 33.153L32.0768 34.2472L32.4508 32.6231L31.4762 32.3987ZM22.3864 24.4874L22.0774 23.5364L20.3976 24.0822L21.7299 25.2417L22.3864 24.4874ZM25.4625 23.4879L25.7715 24.439L26.7226 24.13L26.4136 23.1789L25.4625 23.4879ZM19.0761 3.83245L18.767 2.8814L17.816 3.19041L18.125 4.14147L19.0761 3.83245ZM24.7165 1.99978L25.6675 1.69076L25.3585 0.739705L24.4074 1.04872L24.7165 1.99978ZM31.1029 21.6553L30.1519 21.9643L30.4609 22.9153L31.4119 22.6063L31.1029 21.6553ZM34.1799 20.6555L35.1544 20.8798L35.5507 19.1586L33.8709 19.7044L34.1799 20.6555ZM31.4762 32.3987L32.1328 31.6444L23.043 23.7331L22.3864 24.4874L21.7299 25.2417L30.8197 33.153L31.4762 32.3987ZM22.3864 24.4874L22.6955 25.4385L25.7715 24.439L25.4625 23.4879L25.1535 22.5369L22.0774 23.5364L22.3864 24.4874ZM25.4625 23.4879L26.4136 23.1789L20.0271 3.52344L19.0761 3.83245L18.125 4.14147L24.5115 23.7969L25.4625 23.4879ZM19.0761 3.83245L19.3851 4.78351L25.0255 2.95083L24.7165 1.99978L24.4074 1.04872L18.767 2.8814L19.0761 3.83245ZM24.7165 1.99978L23.7654 2.3088L30.1519 21.9643L31.1029 21.6553L32.054 21.3462L25.6675 1.69076L24.7165 1.99978ZM31.1029 21.6553L31.4119 22.6063L34.4889 21.6065L34.1799 20.6555L33.8709 19.7044L30.7939 20.7042L31.1029 21.6553ZM34.1799 20.6555L33.2054 20.4311L30.5017 32.1744L31.4762 32.3987L32.4508 32.6231L35.1544 20.8798L34.1799 20.6555Z" fill="black" mask="url(#path-3-inside-2_760_3)"/>
<mask id="path-5-inside-3_760_3" fill="white">
<path d="M32.9559 32.4187L37.6711 21.329L39.5722 23.9457L56.2922 11.7979L59.7781 16.5959L43.0582 28.7437L44.9599 31.3611L32.9559 32.4187Z"/>
</mask>
<path d="M32.9559 32.4187L32.0356 32.0274L31.3835 33.5611L33.0437 33.4148L32.9559 32.4187ZM37.6711 21.329L38.4801 20.7412L37.4419 19.3123L36.7508 20.9377L37.6711 21.329ZM39.5722 23.9457L38.7632 24.5335L39.351 25.3425L40.16 24.7547L39.5722 23.9457ZM56.2922 11.7979L57.1012 11.2101L56.5134 10.4011L55.7044 10.9889L56.2922 11.7979ZM59.7781 16.5959L60.3659 17.4049L61.1749 16.8172L60.5871 16.0081L59.7781 16.5959ZM43.0582 28.7437L42.4704 27.9347L41.6614 28.5224L42.2492 29.3315L43.0582 28.7437ZM44.9599 31.3611L45.0476 32.3573L46.8071 32.2023L45.7689 30.7733L44.9599 31.3611ZM32.9559 32.4187L33.8762 32.8099L38.5914 21.7203L37.6711 21.329L36.7508 20.9377L32.0356 32.0274L32.9559 32.4187ZM37.6711 21.329L36.8621 21.9168L38.7632 24.5335L39.5722 23.9457L40.3812 23.3579L38.4801 20.7412L37.6711 21.329ZM39.5722 23.9457L40.16 24.7547L56.8799 12.6069L56.2922 11.7979L55.7044 10.9889L38.9844 23.1367L39.5722 23.9457ZM56.2922 11.7979L55.4831 12.3857L58.9691 17.1837L59.7781 16.5959L60.5871 16.0081L57.1012 11.2101L56.2922 11.7979ZM59.7781 16.5959L59.1903 15.7869L42.4704 27.9347L43.0582 28.7437L43.646 29.5527L60.3659 17.4049L59.7781 16.5959ZM43.0582 28.7437L42.2492 29.3315L44.1508 31.9489L44.9599 31.3611L45.7689 30.7733L43.8672 28.1559L43.0582 28.7437ZM44.9599 31.3611L44.8721 30.365L32.8681 31.4225L32.9559 32.4187L33.0437 33.4148L45.0476 32.3573L44.9599 31.3611Z" fill="black" mask="url(#path-5-inside-3_760_3)"/>
<mask id="path-7-inside-4_760_3" fill="white">
<path d="M33.3942 33.8321L45.3982 34.8896L43.497 37.5062L60.217 49.654L56.731 54.452L40.0111 42.3043L38.1094 44.9217L33.3942 33.8321Z"/>
</mask>
<path d="M33.3942 33.8321L33.482 32.8359L31.8218 32.6897L32.4739 34.2233L33.3942 33.8321ZM45.3982 34.8896L46.2072 35.4774L47.2454 34.0484L45.4859 33.8934L45.3982 34.8896ZM43.497 37.5062L42.688 36.9185L42.1002 37.7275L42.9093 38.3153L43.497 37.5062ZM60.217 49.654L61.026 50.2418L61.6138 49.4328L60.8048 48.845L60.217 49.654ZM56.731 54.452L56.1433 55.261L56.9523 55.8488L57.5401 55.0398L56.731 54.452ZM40.0111 42.3043L40.5989 41.4952L39.7899 40.9075L39.2021 41.7165L40.0111 42.3043ZM38.1094 44.9217L37.1891 45.313L37.8802 46.9384L38.9184 45.5095L38.1094 44.9217ZM33.3942 33.8321L33.3064 34.8282L45.3104 35.8857L45.3982 34.8896L45.4859 33.8934L33.482 32.8359L33.3942 33.8321ZM45.3982 34.8896L44.5892 34.3018L42.688 36.9185L43.497 37.5062L44.3061 38.094L46.2072 35.4774L45.3982 34.8896ZM43.497 37.5062L42.9093 38.3153L59.6292 50.463L60.217 49.654L60.8048 48.845L44.0848 36.6972L43.497 37.5062ZM60.217 49.654L59.408 49.0662L55.922 53.8642L56.731 54.452L57.5401 55.0398L61.026 50.2418L60.217 49.654ZM56.731 54.452L57.3188 53.643L40.5989 41.4952L40.0111 42.3043L39.4233 43.1133L56.1433 55.261L56.731 54.452ZM40.0111 42.3043L39.2021 41.7165L37.3004 44.3339L38.1094 44.9217L38.9184 45.5095L40.8201 42.892L40.0111 42.3043ZM38.1094 44.9217L39.0297 44.5304L34.3145 33.4408L33.3942 33.8321L32.4739 34.2233L37.1891 45.313L38.1094 44.9217Z" fill="black" mask="url(#path-7-inside-4_760_3)"/>
<mask id="path-9-inside-5_760_3" fill="white">
<path d="M32.1854 34.6857L34.8891 46.4289L31.813 45.4294L25.4266 65.0849L19.7862 63.2522L26.1726 43.5968L23.0956 42.597L32.1854 34.6857Z"/>
</mask>
<path d="M32.1854 34.6857L33.1599 34.4613L32.786 32.8372L31.5289 33.9314L32.1854 34.6857ZM34.8891 46.4289L34.5801 47.38L36.2599 47.9258L35.8636 46.2045L34.8891 46.4289ZM31.813 45.4294L32.122 44.4784L31.171 44.1694L30.862 45.1204L31.813 45.4294ZM25.4266 65.0849L25.1175 66.036L26.0686 66.345L26.3776 65.3939L25.4266 65.0849ZM19.7862 63.2522L18.8351 62.9432L18.5261 63.8943L19.4772 64.2033L19.7862 63.2522ZM26.1726 43.5968L27.1237 43.9058L27.4327 42.9547L26.4816 42.6457L26.1726 43.5968ZM23.0956 42.597L22.4391 41.8427L21.1068 43.0022L22.7866 43.548L23.0956 42.597ZM32.1854 34.6857L31.2109 34.91L33.9146 46.6533L34.8891 46.4289L35.8636 46.2045L33.1599 34.4613L32.1854 34.6857ZM34.8891 46.4289L35.1981 45.4778L32.122 44.4784L31.813 45.4294L31.504 46.3805L34.5801 47.38L34.8891 46.4289ZM31.813 45.4294L30.862 45.1204L24.4755 64.7759L25.4266 65.0849L26.3776 65.3939L32.7641 45.7384L31.813 45.4294ZM25.4266 65.0849L25.7356 64.1338L20.0952 62.3012L19.7862 63.2522L19.4772 64.2033L25.1175 66.036L25.4266 65.0849ZM19.7862 63.2522L20.7372 63.5612L27.1237 43.9058L26.1726 43.5968L25.2216 43.2877L18.8351 62.9432L19.7862 63.2522ZM26.1726 43.5968L26.4816 42.6457L23.4046 41.6459L23.0956 42.597L22.7866 43.548L25.8636 44.5478L26.1726 43.5968ZM23.0956 42.597L23.7521 43.3513L32.8419 35.44L32.1854 34.6857L31.5289 33.9314L22.4391 41.8427L23.0956 42.597Z" fill="black" mask="url(#path-9-inside-5_760_3)"/>
<path d="M134.569 16.2504L130.216 43.4078L112.867 22.0652L119.627 3.88979L134.569 16.2504Z" stroke="black"/>
<line x1="119.772" y1="3.96886" x2="130.143" y2="42.6717" stroke="black"/>
<path d="M112.668 22.0604L134.372 16.2447" stroke="black"/>
<line x1="123.909" y1="18.9148" x2="91.8621" y2="57.7218" stroke="black"/>
<path d="M129.902 42.8181C129.876 42.9892 129.935 43.7395 130.356 44.4217C131.156 45.7175 133.883 46.8048 136.03 48.239C137.609 49.2942 137.694 51.1344 137.738 53.0445C137.756 53.8156 137.368 54.3418 137.044 54.7773C136.622 55.3462 134.554 56.8772 131.846 58.9489C129.789 60.5229 128.958 62.3755 128.752 63.2614C128.745 64.0634 128.886 64.6303 129.085 65.119C129.196 65.3439 129.331 65.5219 129.469 65.7052" stroke="black" stroke-linecap="round"/>
<rect x="200.5" y="13.5" width="3" height="3" stroke="black"/>
<circle cx="201.5" cy="34.5" r="19" fill="white" stroke="black"/>
<circle cx="201.5" cy="34.5" r="17" fill="white" stroke="black"/>
<line x1="199.9" y1="27.5" x2="201.82" y2="24.94" stroke="black" stroke-linecap="round"/>
<line x1="199.9" y1="44.3" x2="201.82" y2="41.74" stroke="black" stroke-linecap="round"/>
<line x1="199.9" y1="41.78" x2="201.82" y2="39.22" stroke="black" stroke-linecap="round"/>
<line x1="0.5" y1="-0.5" x2="3.7" y2="-0.5" transform="matrix(-0.6 -0.8 -0.8 0.6 204.2 28.2)" stroke="black" stroke-linecap="round"/>
<line x1="0.5" y1="-0.5" x2="3.7" y2="-0.5" transform="matrix(-0.6 -0.8 -0.8 0.6 204.2 45)" stroke="black" stroke-linecap="round"/>
<line x1="0.5" y1="-0.5" x2="3.7" y2="-0.5" transform="matrix(-0.6 -0.8 -0.8 0.6 204.2 42.48)" stroke="black" stroke-linecap="round"/>
<line x1="202.18" y1="24.5" x2="202.18" y2="44.5" stroke="black" stroke-linecap="round"/>
<path d="M203.324 19.3636V23H202.898L200.916 20.1449H200.881V23H200.44V19.3636H200.866L202.855 22.2259H202.891V19.3636H203.324Z" fill="black"/>
<circle cx="202" cy="34" r="1.5" fill="white" stroke="black"/>
<rect x="199.5" y="11.5" width="5" height="2" rx="1" fill="white" stroke="black"/>
<mask id="path-29-inside-6_760_3" fill="white">
<path d="M282.5 9C296.031 9 307 19.969 307 33.5C307 47.031 296.031 58 282.5 58C268.969 58 258 47.031 258 33.5C258 19.969 268.969 9 282.5 9ZM282.5 17.0176C273.397 17.0176 266.019 24.3973 266.019 33.5C266.019 42.6026 273.397 49.9814 282.5 49.9814C291.603 49.9814 298.981 42.6026 298.981 33.5C298.981 24.3973 291.603 17.0176 282.5 17.0176Z"/>
</mask>
<path d="M282.5 9C296.031 9 307 19.969 307 33.5C307 47.031 296.031 58 282.5 58C268.969 58 258 47.031 258 33.5C258 19.969 268.969 9 282.5 9ZM282.5 17.0176C273.397 17.0176 266.019 24.3973 266.019 33.5C266.019 42.6026 273.397 49.9814 282.5 49.9814C291.603 49.9814 298.981 42.6026 298.981 33.5C298.981 24.3973 291.603 17.0176 282.5 17.0176Z" fill="#121212"/>
<path d="M282.5 9V8V8V9ZM307 33.5H308H307ZM282.5 58V59V59V58ZM258 33.5H257V33.5H258ZM282.5 17.0176V16.0176V16.0176V17.0176ZM266.019 33.5H265.019V33.5L266.019 33.5ZM282.5 49.9814V50.9814V50.9814V49.9814ZM298.981 33.5L299.981 33.5V33.5H298.981ZM282.5 9V10C295.479 10 306 20.5213 306 33.5H307H308C308 19.4167 296.583 8 282.5 8V9ZM307 33.5H306C306 46.4787 295.479 57 282.5 57V58V59C296.583 59 308 47.5833 308 33.5H307ZM282.5 58V57C269.521 57 259 46.4787 259 33.5H258H257C257 47.5833 268.417 59 282.5 59V58ZM258 33.5H259C259 20.5213 269.521 10 282.5 10V9V8C268.417 8 257 19.4167 257 33.5H258ZM282.5 17.0176V16.0176C272.845 16.0176 265.019 23.8451 265.019 33.5H266.019H267.019C267.019 24.9496 273.95 18.0176 282.5 18.0176V17.0176ZM266.019 33.5L265.019 33.5C265.019 43.1549 272.845 50.9814 282.5 50.9814V49.9814V48.9814C273.95 48.9814 267.019 42.0503 267.019 33.5L266.019 33.5ZM282.5 49.9814V50.9814C292.155 50.9814 299.981 43.1549 299.981 33.5L298.981 33.5L297.981 33.5C297.981 42.0503 291.05 48.9814 282.5 48.9814V49.9814ZM298.981 33.5H299.981C299.981 23.8451 292.155 16.0176 282.5 16.0176V17.0176V18.0176C291.05 18.0176 297.981 24.9495 297.981 33.5H298.981Z" fill="black" mask="url(#path-29-inside-6_760_3)"/>
<mask id="path-31-inside-7_760_3" fill="white">
<path d="M282.501 16.259C292.022 16.2593 299.741 23.9786 299.741 33.5002C299.741 43.0217 292.022 50.7402 282.501 50.7405C272.979 50.7405 265.26 43.0218 265.259 33.5002C265.259 23.9784 272.979 16.259 282.501 16.259ZM282.804 38.0295C280.017 41.9676 278.285 44.6199 277.062 47.0676C278.743 47.7419 280.578 48.1135 282.5 48.1135C284.606 48.1135 286.608 47.6659 288.418 46.8635C287.203 44.4529 285.575 41.922 282.804 38.0295ZM267.931 32.3459C267.901 32.7268 267.886 33.1118 267.886 33.5002C267.886 37.1701 269.239 40.5237 271.473 43.0901C273.44 41.1743 275.356 38.8497 278.249 34.9553C273.67 33.5361 270.641 32.7297 267.931 32.3459ZM297.073 32.4172C294.481 32.8154 291.661 33.5484 287.324 34.9026C290.031 38.5293 291.946 40.9134 293.793 42.7756C295.868 40.2525 297.114 37.022 297.114 33.5002C297.114 33.1359 297.099 32.7749 297.073 32.4172ZM285.905 19.2854C285.457 21.9707 285.282 24.9819 285.234 29.803C289.695 28.2918 292.621 27.181 295.017 25.9553C293.023 22.6542 289.761 20.2058 285.905 19.2854ZM279.091 19.2854C275.312 20.1883 272.104 22.5595 270.101 25.762C272.505 27.042 275.25 28.139 279.738 29.6575C279.677 25.013 279.521 21.9224 279.091 19.2854Z"/>
</mask>
<path d="M282.501 16.259C292.022 16.2593 299.741 23.9786 299.741 33.5002C299.741 43.0217 292.022 50.7402 282.501 50.7405C272.979 50.7405 265.26 43.0218 265.259 33.5002C265.259 23.9784 272.979 16.259 282.501 16.259ZM282.804 38.0295C280.017 41.9676 278.285 44.6199 277.062 47.0676C278.743 47.7419 280.578 48.1135 282.5 48.1135C284.606 48.1135 286.608 47.6659 288.418 46.8635C287.203 44.4529 285.575 41.922 282.804 38.0295ZM267.931 32.3459C267.901 32.7268 267.886 33.1118 267.886 33.5002C267.886 37.1701 269.239 40.5237 271.473 43.0901C273.44 41.1743 275.356 38.8497 278.249 34.9553C273.67 33.5361 270.641 32.7297 267.931 32.3459ZM297.073 32.4172C294.481 32.8154 291.661 33.5484 287.324 34.9026C290.031 38.5293 291.946 40.9134 293.793 42.7756C295.868 40.2525 297.114 37.022 297.114 33.5002C297.114 33.1359 297.099 32.7749 297.073 32.4172ZM285.905 19.2854C285.457 21.9707 285.282 24.9819 285.234 29.803C289.695 28.2918 292.621 27.181 295.017 25.9553C293.023 22.6542 289.761 20.2058 285.905 19.2854ZM279.091 19.2854C275.312 20.1883 272.104 22.5595 270.101 25.762C272.505 27.042 275.25 28.139 279.738 29.6575C279.677 25.013 279.521 21.9224 279.091 19.2854Z" fill="white"/>
<path d="M282.501 16.259L282.501 15.259H282.501V16.259ZM299.741 33.5002L300.741 33.5003V33.5002H299.741ZM282.501 50.7405V51.7405H282.501L282.501 50.7405ZM265.259 33.5002H264.259V33.5003L265.259 33.5002ZM282.804 38.0295L283.619 37.4497L282.802 36.3018L281.988 37.4519L282.804 38.0295ZM277.062 47.0676L276.168 46.6206L275.682 47.5916L276.69 47.9957L277.062 47.0676ZM282.5 48.1135L282.5 49.1135H282.5V48.1135ZM288.418 46.8635L288.823 47.7777L289.783 47.3518L289.311 46.4135L288.418 46.8635ZM267.931 32.3459L268.071 31.3558L267.017 31.2065L266.934 32.2681L267.931 32.3459ZM267.886 33.5002H266.886V33.5003L267.886 33.5002ZM271.473 43.0901L270.719 43.7466L271.413 44.5444L272.171 43.8064L271.473 43.0901ZM278.249 34.9553L279.051 35.5515L279.893 34.4181L278.545 34.0002L278.249 34.9553ZM297.073 32.4172L298.07 32.3442L297.991 31.2644L296.921 31.4288L297.073 32.4172ZM287.324 34.9026L287.026 33.948L285.678 34.369L286.522 35.5008L287.324 34.9026ZM293.793 42.7756L293.082 43.4797L293.862 44.2658L294.565 43.4108L293.793 42.7756ZM297.114 33.5002L298.114 33.5003V33.5002H297.114ZM285.905 19.2854L286.137 18.3127L285.095 18.0639L284.918 19.121L285.905 19.2854ZM285.234 29.803L284.234 29.793L284.22 31.2023L285.555 30.7501L285.234 29.803ZM295.017 25.9553L295.473 26.8456L296.428 26.3569L295.873 25.4383L295.017 25.9553ZM279.091 19.2854L280.078 19.1247L279.906 18.0627L278.859 18.3128L279.091 19.2854ZM270.101 25.762L269.253 25.2317L268.685 26.1407L269.631 26.6446L270.101 25.762ZM279.738 29.6575L279.417 30.6047L280.756 31.0578L280.738 29.6443L279.738 29.6575ZM282.501 16.259L282.501 17.259C291.47 17.2593 298.741 24.5308 298.741 33.5002H299.741H300.741C300.741 23.4264 292.574 15.2593 282.501 15.259L282.501 16.259ZM299.741 33.5002L298.741 33.5002C298.741 42.4694 291.47 49.7402 282.501 49.7405L282.501 50.7405L282.501 51.7405C292.574 51.7402 300.741 43.574 300.741 33.5003L299.741 33.5002ZM282.501 50.7405V49.7405C273.531 49.7405 266.26 42.4695 266.259 33.5002L265.259 33.5002L264.259 33.5003C264.26 43.5742 272.427 51.7405 282.501 51.7405V50.7405ZM265.259 33.5002H266.259C266.259 24.5307 273.531 17.259 282.501 17.259V16.259V15.259C272.426 15.259 264.259 23.4262 264.259 33.5002H265.259ZM282.804 38.0295L281.988 37.4519C279.198 41.3935 277.428 44.0991 276.168 46.6206L277.062 47.0676L277.957 47.5147C279.143 45.1406 280.836 42.5417 283.621 38.6072L282.804 38.0295ZM277.062 47.0676L276.69 47.9957C278.487 48.7166 280.448 49.1135 282.5 49.1135L282.5 48.1135L282.5 47.1135C280.708 47.1135 278.999 46.7672 277.434 46.1395L277.062 47.0676ZM282.5 48.1135V49.1135C284.749 49.1135 286.889 48.6353 288.823 47.7777L288.418 46.8635L288.012 45.9494C286.327 46.6965 284.463 47.1135 282.5 47.1135V48.1135ZM288.418 46.8635L289.311 46.4135C288.061 43.933 286.397 41.3523 283.619 37.4497L282.804 38.0295L281.99 38.6094C284.753 42.4918 286.345 44.9728 287.525 47.3136L288.418 46.8635ZM267.931 32.3459L266.934 32.2681C266.902 32.6748 266.886 33.0857 266.886 33.5002H267.886H268.886C268.886 33.1378 268.9 32.7788 268.928 32.4238L267.931 32.3459ZM267.886 33.5002L266.886 33.5003C266.886 37.4205 268.333 41.0052 270.719 43.7466L271.473 43.0901L272.227 42.4335C270.146 40.0422 268.886 36.9196 268.886 33.5002L267.886 33.5002ZM271.473 43.0901L272.171 43.8064C274.196 41.8336 276.151 39.4572 279.051 35.5515L278.249 34.9553L277.446 34.3591C274.562 38.2421 272.684 40.515 270.775 42.3738L271.473 43.0901ZM278.249 34.9553L278.545 34.0002C273.96 32.5792 270.866 31.7516 268.071 31.3558L267.931 32.3459L267.791 33.3361C270.416 33.7078 273.379 34.4929 277.953 35.9105L278.249 34.9553ZM297.073 32.4172L296.921 31.4288C294.254 31.8386 291.377 32.5895 287.026 33.948L287.324 34.9026L287.622 35.8571C291.945 34.5072 294.708 33.7922 297.225 33.4056L297.073 32.4172ZM287.324 34.9026L286.522 35.5008C289.233 39.1319 291.183 41.5643 293.082 43.4797L293.793 42.7756L294.503 42.0716C292.709 40.2625 290.829 37.9266 288.125 34.3044L287.324 34.9026ZM293.793 42.7756L294.565 43.4108C296.782 40.7154 298.114 37.2622 298.114 33.5003L297.114 33.5002L296.114 33.5002C296.114 36.7818 294.954 39.7896 293.02 42.1404L293.793 42.7756ZM297.114 33.5002H298.114C298.114 33.1089 298.098 32.7233 298.07 32.3442L297.073 32.4172L296.075 32.4903C296.1 32.8264 296.114 33.163 296.114 33.5002H297.114ZM285.905 19.2854L284.918 19.121C284.458 21.8851 284.282 24.9592 284.234 29.793L285.234 29.803L286.234 29.8129C286.282 25.0046 286.457 22.0563 286.891 19.4498L285.905 19.2854ZM285.234 29.803L285.555 30.7501C290.02 29.2374 293.006 28.1071 295.473 26.8456L295.017 25.9553L294.562 25.065C292.236 26.2548 289.37 27.3461 284.913 28.8559L285.234 29.803ZM295.017 25.9553L295.873 25.4383C293.744 21.9131 290.259 19.2967 286.137 18.3127L285.905 19.2854L285.673 20.2581C289.262 21.1148 292.303 23.3954 294.161 26.4724L295.017 25.9553ZM279.091 19.2854L278.859 18.3128C274.819 19.2781 271.392 21.812 269.253 25.2317L270.101 25.762L270.949 26.2922C272.816 23.307 275.806 21.0985 279.324 20.258L279.091 19.2854ZM270.101 25.762L269.631 26.6446C272.108 27.9633 274.913 29.0809 279.417 30.6047L279.738 29.6575L280.058 28.7102C275.586 27.1971 272.902 26.1207 270.571 24.8793L270.101 25.762ZM279.738 29.6575L280.738 29.6443C280.676 24.9944 280.52 21.8402 280.078 19.1247L279.091 19.2854L278.104 19.4461C278.521 22.0045 278.677 25.0316 278.738 29.6707L279.738 29.6575Z" fill="black" mask="url(#path-31-inside-7_760_3)"/>
<circle cx="283" cy="33" r="1.5" stroke="black"/>
</svg>
