<svg width="318" height="51" viewBox="0 0 318 51" fill="none" xmlns="http://www.w3.org/2000/svg">
<mask id="path-1-inside-1_767_6" fill="white">
<path d="M96.1865 20.6724C97.3441 21.0219 98.424 21.5489 99.3955 22.2222L102.651 20.3687L104.951 22.6685L103.044 26.355C103.502 27.2314 103.85 28.1735 104.07 29.1646L107.788 30.1841V33.436L103.95 34.6567C103.667 35.7093 103.241 36.7028 102.689 37.6128L104.479 40.7563L102.18 43.0562L98.9648 41.3931C97.9122 42.0549 96.7459 42.5504 95.5 42.8433L94.6641 45.8931H91.4121L90.458 42.897C89.0519 42.5974 87.7421 42.0405 86.5781 41.2778L83.1885 43.2085L80.8887 40.9087L82.8018 37.2075C82.2293 36.1703 81.8144 35.0351 81.585 33.8335L78 32.8511V29.5991L81.8604 28.3696C82.2667 27.0117 82.9175 25.7602 83.7617 24.6646L82.2402 21.9927L84.54 19.6938L87.7793 21.3677C88.7748 20.8754 89.8513 20.5228 90.9844 20.3364L91.9941 16.8042H95.082L96.1865 20.6724Z"/>
</mask>
<path d="M96.1865 20.6724L95.225 20.9469L95.3748 21.4719L95.8975 21.6297L96.1865 20.6724ZM99.3955 22.2222L98.8259 23.0441L99.3432 23.4026L99.8902 23.0912L99.3955 22.2222ZM102.651 20.3687L103.358 19.6615L102.819 19.1224L102.157 19.4996L102.651 20.3687ZM104.951 22.6685L105.839 23.128L106.175 22.4784L105.658 21.9614L104.951 22.6685ZM103.044 26.355L102.156 25.8955L101.917 26.3574L102.158 26.8183L103.044 26.355ZM104.07 29.1646L103.094 29.3815L103.225 29.9696L103.806 30.1289L104.07 29.1646ZM107.788 30.1841H108.788V29.4214L108.053 29.2197L107.788 30.1841ZM107.788 33.436L108.091 34.389L108.788 34.1673V33.436H107.788ZM103.95 34.6567L103.647 33.7038L103.126 33.8694L102.985 34.397L103.95 34.6567ZM102.689 37.6128L101.834 37.0943L101.53 37.5969L101.82 38.1076L102.689 37.6128ZM104.479 40.7563L105.187 41.4635L105.726 40.9242L105.348 40.2615L104.479 40.7563ZM102.18 43.0562L101.72 43.9443L102.37 44.2803L102.887 43.7633L102.18 43.0562ZM98.9648 41.3931L99.4243 40.5049L98.9165 40.2422L98.4326 40.5465L98.9648 41.3931ZM95.5 42.8433L95.2712 41.8698L94.6927 42.0058L94.5356 42.5789L95.5 42.8433ZM94.6641 45.8931V46.8931H95.4269L95.6285 46.1574L94.6641 45.8931ZM91.4121 45.8931L90.4593 46.1965L90.6811 46.8931H91.4121V45.8931ZM90.458 42.897L91.4109 42.5935L91.2346 42.04L90.6664 41.9189L90.458 42.897ZM86.5781 41.2778L87.1262 40.4414L86.6146 40.1062L86.0832 40.4089L86.5781 41.2778ZM83.1885 43.2085L82.4814 43.9156L83.0207 44.4549L83.6834 44.0774L83.1885 43.2085ZM80.8887 40.9087L80.0003 40.4495L79.6647 41.0989L80.1816 41.6158L80.8887 40.9087ZM82.8018 37.2075L83.6901 37.6667L83.9354 37.1921L83.6773 36.7243L82.8018 37.2075ZM81.585 33.8335L82.5672 33.6459L82.4503 33.0338L81.8493 32.8691L81.585 33.8335ZM78 32.8511H77V33.6139L77.7357 33.8155L78 32.8511ZM78 29.5991L77.6965 28.6463L77 28.8681V29.5991H78ZM81.8604 28.3696L82.1638 29.3225L82.667 29.1622L82.8184 28.6563L81.8604 28.3696ZM83.7617 24.6646L84.5538 25.2749L84.9599 24.7479L84.6307 24.1697L83.7617 24.6646ZM82.2402 21.9927L81.5333 21.2854L80.9938 21.8247L81.3712 22.4875L82.2402 21.9927ZM84.54 19.6938L84.9991 18.8054L84.3499 18.47L83.8331 18.9866L84.54 19.6938ZM87.7793 21.3677L87.3202 22.2561L87.7694 22.4882L88.2226 22.2641L87.7793 21.3677ZM90.9844 20.3364L91.1467 21.3232L91.7718 21.2203L91.9459 20.6113L90.9844 20.3364ZM91.9941 16.8042V15.8042H91.24L91.0327 16.5293L91.9941 16.8042ZM95.082 16.8042L96.0436 16.5296L95.8365 15.8042H95.082V16.8042ZM96.1865 20.6724L95.8975 21.6297C96.9533 21.9485 97.9388 22.4293 98.8259 23.0441L99.3955 22.2222L99.9651 21.4003C98.9092 20.6685 97.7348 20.0953 96.4756 19.715L96.1865 20.6724ZM99.3955 22.2222L99.8902 23.0912L103.146 21.2377L102.651 20.3687L102.157 19.4996L98.9008 21.3531L99.3955 22.2222ZM102.651 20.3687L101.944 21.0758L104.244 23.3756L104.951 22.6685L105.658 21.9614L103.358 19.6615L102.651 20.3687ZM104.951 22.6685L104.063 22.209L102.156 25.8955L103.044 26.355L103.932 26.8145L105.839 23.128L104.951 22.6685ZM103.044 26.355L102.158 26.8183C102.576 27.618 102.893 28.4773 103.094 29.3815L104.07 29.1646L105.046 28.9476C104.807 27.8696 104.428 26.8448 103.93 25.8917L103.044 26.355ZM104.07 29.1646L103.806 30.1289L107.524 31.1485L107.788 30.1841L108.053 29.2197L104.335 28.2002L104.07 29.1646ZM107.788 30.1841H106.788V33.436H107.788H108.788V30.1841H107.788ZM107.788 33.436L107.485 32.4831L103.647 33.7038L103.95 34.6567L104.253 35.6097L108.091 34.389L107.788 33.436ZM103.95 34.6567L102.985 34.397C102.726 35.359 102.337 36.2653 101.834 37.0943L102.689 37.6128L103.545 38.1313C104.145 37.1403 104.608 36.0596 104.916 34.9165L103.95 34.6567ZM102.689 37.6128L101.82 38.1076L103.611 41.2512L104.479 40.7563L105.348 40.2615L103.558 37.118L102.689 37.6128ZM104.479 40.7563L103.772 40.0492L101.473 42.349L102.18 43.0562L102.887 43.7633L105.187 41.4635L104.479 40.7563ZM102.18 43.0562L102.639 42.168L99.4243 40.5049L98.9648 41.3931L98.5054 42.2813L101.72 43.9443L102.18 43.0562ZM98.9648 41.3931L98.4326 40.5465C97.4715 41.1508 96.4074 41.6027 95.2712 41.8698L95.5 42.8433L95.7288 43.8167C97.0843 43.4981 98.3529 42.959 99.4971 42.2396L98.9648 41.3931ZM95.5 42.8433L94.5356 42.5789L93.6996 45.6287L94.6641 45.8931L95.6285 46.1574L96.4644 43.1076L95.5 42.8433ZM94.6641 45.8931V44.8931H91.4121V45.8931V46.8931H94.6641V45.8931ZM91.4121 45.8931L92.365 45.5896L91.4109 42.5935L90.458 42.897L89.5052 43.2004L90.4593 46.1965L91.4121 45.8931ZM90.458 42.897L90.6664 41.9189C89.384 41.6457 88.189 41.1378 87.1262 40.4414L86.5781 41.2778L86.0301 42.1143C87.2952 42.9432 88.7198 43.5491 90.2496 43.875L90.458 42.897ZM86.5781 41.2778L86.0832 40.4089L82.6936 42.3396L83.1885 43.2085L83.6834 44.0774L87.0731 42.1468L86.5781 41.2778ZM83.1885 43.2085L83.8956 42.5014L81.5958 40.2016L80.8887 40.9087L80.1816 41.6158L82.4814 43.9156L83.1885 43.2085ZM80.8887 40.9087L81.777 41.3679L83.6901 37.6667L82.8018 37.2075L81.9134 36.7483L80.0003 40.4495L80.8887 40.9087ZM82.8018 37.2075L83.6773 36.7243C83.1553 35.7786 82.7767 34.7431 82.5672 33.6459L81.585 33.8335L80.6027 34.0211C80.8521 35.3272 81.3033 36.562 81.9262 37.6907L82.8018 37.2075ZM81.585 33.8335L81.8493 32.8691L78.2643 31.8866L78 32.8511L77.7357 33.8155L81.3207 34.7979L81.585 33.8335ZM78 32.8511H79V29.5991H78H77V32.8511H78ZM78 29.5991L78.3035 30.552L82.1638 29.3225L81.8604 28.3696L81.5569 27.4168L77.6965 28.6463L78 29.5991ZM81.8604 28.3696L82.8184 28.6563C83.189 27.4179 83.7827 26.2757 84.5538 25.2749L83.7617 24.6646L82.9696 24.0542C82.0523 25.2447 81.3445 26.6055 80.9023 28.0829L81.8604 28.3696ZM83.7617 24.6646L84.6307 24.1697L83.1092 21.4978L82.2402 21.9927L81.3712 22.4875L82.8927 25.1594L83.7617 24.6646ZM82.2402 21.9927L82.9472 22.6999L85.247 20.4011L84.54 19.6938L83.8331 18.9866L81.5333 21.2854L82.2402 21.9927ZM84.54 19.6938L84.081 20.5822L87.3202 22.2561L87.7793 21.3677L88.2384 20.4793L84.9991 18.8054L84.54 19.6938ZM87.7793 21.3677L88.2226 22.2641C89.1312 21.8147 90.1132 21.4932 91.1467 21.3232L90.9844 20.3364L90.822 19.3497C89.5895 19.5525 88.4185 19.936 87.336 20.4713L87.7793 21.3677ZM90.9844 20.3364L91.9459 20.6113L92.9556 17.0791L91.9941 16.8042L91.0327 16.5293L90.0229 20.0616L90.9844 20.3364ZM91.9941 16.8042V17.8042H95.082V16.8042V15.8042H91.9941V16.8042ZM95.082 16.8042L94.1205 17.0788L95.225 20.9469L96.1865 20.6724L97.1481 20.3978L96.0436 16.5296L95.082 16.8042Z" fill="black" mask="url(#path-1-inside-1_767_6)"/>
<path d="M95.333 30.7731V33.235L93.2002 34.4674L91.0674 33.235V30.7731L93.2002 29.5406L95.333 30.7731Z" stroke="black"/>
<mask id="path-4-inside-2_767_6" fill="white">
<path d="M131.398 13.4701C132.556 13.8196 133.636 14.3466 134.607 15.0199L137.863 13.1664L140.163 15.4662L138.256 19.1527C138.714 20.0291 139.062 20.9712 139.282 21.9623L143 22.9818V26.2338L139.162 27.4545C138.879 28.507 138.453 29.5005 137.901 30.4105L139.691 33.5541L137.391 35.8539L134.177 34.1908C133.124 34.8526 131.958 35.3481 130.712 35.641L129.876 38.6908H126.624L125.67 35.6947C124.264 35.3951 122.954 34.8374 121.79 34.0746L118.4 36.0052L116.1 33.7064L118.014 30.0052C117.441 28.968 117.026 27.8329 116.797 26.6312L113.212 25.6488V22.3969L117.072 21.1674C117.479 19.8094 118.129 18.5579 118.974 17.4623L117.452 14.7904L119.752 12.4906L122.991 14.1654C123.987 13.6731 125.063 13.3206 126.196 13.1342L127.206 9.60193H130.294L131.398 13.4701Z"/>
</mask>
<path d="M131.398 13.4701L130.437 13.7447L130.587 14.2696L131.109 14.4274L131.398 13.4701ZM134.607 15.0199L134.038 15.8418L134.555 16.2003L135.102 15.8889L134.607 15.0199ZM137.863 13.1664L138.57 12.4593L138.031 11.9201L137.368 12.2973L137.863 13.1664ZM140.163 15.4662L141.051 15.9257L141.387 15.2762L140.87 14.7591L140.163 15.4662ZM138.256 19.1527L137.368 18.6932L137.129 19.1551L137.37 19.616L138.256 19.1527ZM139.282 21.9623L138.306 22.1793L138.437 22.7673L139.018 22.9267L139.282 21.9623ZM143 22.9818H144V22.2191L143.264 22.0174L143 22.9818ZM143 26.2338L143.303 27.1867L144 26.9651V26.2338H143ZM139.162 27.4545L138.859 26.5015L138.338 26.6671L138.196 27.1947L139.162 27.4545ZM137.901 30.4105L137.046 29.892L136.741 30.3946L137.032 30.9054L137.901 30.4105ZM139.691 33.5541L140.398 34.2612L140.938 33.7219L140.56 33.0592L139.691 33.5541ZM137.391 35.8539L136.932 36.7421L137.582 37.0781L138.099 36.561L137.391 35.8539ZM134.177 34.1908L134.636 33.3026L134.128 33.0399L133.644 33.3442L134.177 34.1908ZM130.712 35.641L130.483 34.6675L129.904 34.8035L129.747 35.3766L130.712 35.641ZM129.876 38.6908V39.6908H130.639L130.84 38.9551L129.876 38.6908ZM126.624 38.6908L125.671 38.9942L125.893 39.6908H126.624V38.6908ZM125.67 35.6947L126.623 35.3913L126.446 34.8377L125.878 34.7167L125.67 35.6947ZM121.79 34.0746L122.338 33.2382L121.826 32.9029L121.295 33.2057L121.79 34.0746ZM118.4 36.0052L117.693 36.7125L118.233 37.2516L118.895 36.8742L118.4 36.0052ZM116.1 33.7064L115.212 33.2472L114.876 33.8968L115.394 34.4137L116.1 33.7064ZM118.014 30.0052L118.902 30.4644L119.147 29.9898L118.889 29.5221L118.014 30.0052ZM116.797 26.6312L117.779 26.4436L117.662 25.8315L117.061 25.6668L116.797 26.6312ZM113.212 25.6488H112.212V26.4116L112.947 26.6132L113.212 25.6488ZM113.212 22.3969L112.908 21.444L112.212 21.6658V22.3969H113.212ZM117.072 21.1674L117.376 22.1202L117.879 21.9599L118.03 21.454L117.072 21.1674ZM118.974 17.4623L119.766 18.0726L120.172 17.5456L119.842 16.9674L118.974 17.4623ZM117.452 14.7904L116.745 14.0833L116.206 14.6225L116.583 15.2852L117.452 14.7904ZM119.752 12.4906L120.211 11.6023L119.562 11.2665L119.045 11.7835L119.752 12.4906ZM122.991 14.1654L122.532 15.0537L122.981 15.286L123.434 15.0618L122.991 14.1654ZM126.196 13.1342L126.359 14.1209L126.984 14.0181L127.158 13.409L126.196 13.1342ZM127.206 9.60193V8.60193H126.452L126.244 9.32707L127.206 9.60193ZM130.294 9.60193L131.255 9.32737L131.048 8.60193H130.294V9.60193ZM131.398 13.4701L131.109 14.4274C132.165 14.7462 133.151 15.227 134.038 15.8418L134.607 15.0199L135.177 14.198C134.121 13.4662 132.947 12.893 131.687 12.5128L131.398 13.4701ZM134.607 15.0199L135.102 15.8889L138.358 14.0354L137.863 13.1664L137.368 12.2973L134.113 14.1509L134.607 15.0199ZM137.863 13.1664L137.156 13.8735L139.456 16.1733L140.163 15.4662L140.87 14.7591L138.57 12.4593L137.863 13.1664ZM140.163 15.4662L139.275 15.0067L137.368 18.6932L138.256 19.1527L139.144 19.6122L141.051 15.9257L140.163 15.4662ZM138.256 19.1527L137.37 19.616C137.788 20.4157 138.105 21.2751 138.306 22.1793L139.282 21.9623L140.258 21.7453C140.019 20.6673 139.64 19.6425 139.142 18.6894L138.256 19.1527ZM139.282 21.9623L139.018 22.9267L142.735 23.9462L143 22.9818L143.264 22.0174L139.547 20.9979L139.282 21.9623ZM143 22.9818H142V26.2338H143H144V22.9818H143ZM143 26.2338L142.697 25.2808L138.859 26.5015L139.162 27.4545L139.465 28.4074L143.303 27.1867L143 26.2338ZM139.162 27.4545L138.196 27.1947C137.938 28.1567 137.549 29.063 137.046 29.892L137.901 30.4105L138.756 30.929C139.357 29.938 139.82 28.8574 140.128 27.7142L139.162 27.4545ZM137.901 30.4105L137.032 30.9054L138.822 34.0489L139.691 33.5541L140.56 33.0592L138.77 29.9157L137.901 30.4105ZM139.691 33.5541L138.984 32.847L136.684 35.1468L137.391 35.8539L138.099 36.561L140.398 34.2612L139.691 33.5541ZM137.391 35.8539L137.851 34.9657L134.636 33.3026L134.177 34.1908L133.717 35.079L136.932 36.7421L137.391 35.8539ZM134.177 34.1908L133.644 33.3442C132.683 33.9485 131.619 34.4004 130.483 34.6675L130.712 35.641L130.941 36.6145C132.296 36.2958 133.565 35.7568 134.709 35.0374L134.177 34.1908ZM130.712 35.641L129.747 35.3766L128.911 38.4265L129.876 38.6908L130.84 38.9551L131.676 35.9053L130.712 35.641ZM129.876 38.6908V37.6908H126.624V38.6908V39.6908H129.876V38.6908ZM126.624 38.6908L127.577 38.3874L126.623 35.3913L125.67 35.6947L124.717 35.9981L125.671 38.9942L126.624 38.6908ZM125.67 35.6947L125.878 34.7167C124.596 34.4435 123.401 33.9349 122.338 33.2382L121.79 34.0746L121.242 34.911C122.507 35.7399 123.931 36.3467 125.461 36.6727L125.67 35.6947ZM121.79 34.0746L121.295 33.2057L117.905 35.1363L118.4 36.0052L118.895 36.8742L122.285 34.9435L121.79 34.0746ZM118.4 36.0052L119.107 35.298L116.807 32.9992L116.1 33.7064L115.394 34.4137L117.693 36.7125L118.4 36.0052ZM116.1 33.7064L116.989 34.1656L118.902 30.4644L118.014 30.0052L117.125 29.5461L115.212 33.2472L116.1 33.7064ZM118.014 30.0052L118.889 29.5221C118.367 28.5763 117.989 27.5408 117.779 26.4436L116.797 26.6312L115.815 26.8188C116.064 28.1249 116.515 29.3597 117.138 30.4884L118.014 30.0052ZM116.797 26.6312L117.061 25.6668L113.476 24.6844L113.212 25.6488L112.947 26.6132L116.532 27.5957L116.797 26.6312ZM113.212 25.6488H114.212V22.3969H113.212H112.212V25.6488H113.212ZM113.212 22.3969L113.515 23.3497L117.376 22.1202L117.072 21.1674L116.769 20.2145L112.908 21.444L113.212 22.3969ZM117.072 21.1674L118.03 21.454C118.401 20.2156 118.994 19.0735 119.766 18.0726L118.974 17.4623L118.181 16.8519C117.264 18.0424 116.556 19.4032 116.114 20.8807L117.072 21.1674ZM118.974 17.4623L119.842 16.9674L118.321 14.2956L117.452 14.7904L116.583 15.2852L118.105 17.9571L118.974 17.4623ZM117.452 14.7904L118.159 15.4975L120.459 13.1977L119.752 12.4906L119.045 11.7835L116.745 14.0833L117.452 14.7904ZM119.752 12.4906L119.293 13.3789L122.532 15.0537L122.991 14.1654L123.45 13.2771L120.211 11.6023L119.752 12.4906ZM122.991 14.1654L123.434 15.0618C124.343 14.6125 125.325 14.2909 126.359 14.1209L126.196 13.1342L126.034 12.1474C124.801 12.3502 123.63 12.7337 122.548 13.269L122.991 14.1654ZM126.196 13.1342L127.158 13.409L128.167 9.87679L127.206 9.60193L126.244 9.32707L125.235 12.8593L126.196 13.1342ZM127.206 9.60193V10.6019H130.294V9.60193V8.60193H127.206V9.60193ZM130.294 9.60193L129.332 9.87649L130.437 13.7447L131.398 13.4701L132.36 13.1955L131.255 9.32737L130.294 9.60193Z" fill="black" mask="url(#path-4-inside-2_767_6)"/>
<path d="M130.545 23.5708V26.0327L128.412 27.2651L126.279 26.0327V23.5708L128.412 22.3384L130.545 23.5708Z" stroke="black"/>
<mask id="path-7-inside-3_767_6" fill="white">
<path d="M111.857 8.03705C112.275 8.26163 112.665 8.52796 113.026 8.82834L116.599 8.03946L118.102 10.8661L115.536 13.5086C115.57 13.8352 115.585 14.168 115.573 14.5056C115.563 14.7894 115.533 15.0683 115.491 15.3422L117.94 18.0191L116.244 20.734L112.806 19.8664C112.077 20.4253 111.236 20.8442 110.326 21.0853L109.292 24.3598L106.093 24.2481L104.994 20.3793C104.601 20.1527 104.232 19.8903 103.892 19.5952L100.536 20.3379L99.0333 17.5113L101.491 14.9783C101.459 14.6618 101.447 14.3396 101.459 14.0128C101.476 13.5212 101.542 13.043 101.654 12.5832L99.4884 10.2161L101.185 7.50118L104.624 8.36784C105.235 7.96405 105.909 7.65135 106.63 7.45193L107.703 4.28628L110.902 4.39797L111.857 8.03705Z"/>
</mask>
<path d="M111.857 8.03705L110.89 8.29104L111 8.71165L111.383 8.91769L111.857 8.03705ZM113.026 8.82834L112.387 9.59714L112.764 9.91046L113.242 9.80482L113.026 8.82834ZM116.599 8.03946L117.482 7.57001L117.125 6.89916L116.384 7.06298L116.599 8.03946ZM118.102 10.8661L118.819 11.5628L119.327 11.0401L118.985 10.3966L118.102 10.8661ZM115.536 13.5086L114.818 12.8119L114.492 13.1479L114.541 13.6137L115.536 13.5086ZM115.573 14.5056L116.572 14.5405L116.572 14.5405L115.573 14.5056ZM115.491 15.3422L114.503 15.19L114.43 15.6636L114.753 16.0172L115.491 15.3422ZM117.94 18.0191L118.788 18.549L119.191 17.9047L118.678 17.3441L117.94 18.0191ZM116.244 20.734L115.999 21.7036L116.706 21.8819L117.092 21.2639L116.244 20.734ZM112.806 19.8664L113.051 18.8968L112.582 18.7785L112.198 19.0726L112.806 19.8664ZM110.326 21.0853L110.07 20.1186L109.538 20.2594L109.372 20.7842L110.326 21.0853ZM109.292 24.3598L109.257 25.3592L110.016 25.3857L110.245 24.6609L109.292 24.3598ZM106.093 24.2481L105.131 24.5211L105.329 25.2221L106.058 25.2475L106.093 24.2481ZM104.994 20.3793L105.956 20.1062L105.846 19.7157L105.494 19.5129L104.994 20.3793ZM103.892 19.5952L104.548 18.8399L104.167 18.5101L103.676 18.6188L103.892 19.5952ZM100.536 20.3379L99.6532 20.8074L100.01 21.4785L100.752 21.3143L100.536 20.3379ZM99.0333 17.5113L98.3157 16.8149L97.8084 17.3376L98.1503 17.9807L99.0333 17.5113ZM101.491 14.9783L102.209 15.6748L102.533 15.3408L102.486 14.8778L101.491 14.9783ZM101.459 14.0128L100.459 13.9779L100.459 13.9779L101.459 14.0128ZM101.654 12.5832L102.626 12.8194L102.752 12.3014L102.392 11.9081L101.654 12.5832ZM99.4884 10.2161L98.6403 9.6862L98.2377 10.3306L98.7506 10.8911L99.4884 10.2161ZM101.185 7.50118L101.429 6.53149L100.723 6.3535L100.337 6.97128L101.185 7.50118ZM104.624 8.36784L104.38 9.33753L104.808 9.44539L105.176 9.20178L104.624 8.36784ZM106.63 7.45193L106.897 8.41572L107.407 8.2745L107.577 7.77296L106.63 7.45193ZM107.703 4.28628L107.738 3.28689L106.995 3.26094L106.756 3.96526L107.703 4.28628ZM110.902 4.39797L111.869 4.14398L111.68 3.42454L110.936 3.39858L110.902 4.39797ZM111.857 8.03705L111.383 8.91769C111.74 9.10935 112.075 9.33774 112.387 9.59714L113.026 8.82834L113.666 8.05954C113.256 7.71818 112.81 7.4139 112.331 7.15641L111.857 8.03705ZM113.026 8.82834L113.242 9.80482L116.815 9.01594L116.599 8.03946L116.384 7.06298L112.811 7.85186L113.026 8.82834ZM116.599 8.03946L115.716 8.50891L117.219 11.3355L118.102 10.8661L118.985 10.3966L117.482 7.57001L116.599 8.03946ZM118.102 10.8661L117.385 10.1694L114.818 12.8119L115.536 13.5086L116.253 14.2053L118.819 11.5628L118.102 10.8661ZM115.536 13.5086L114.541 13.6137C114.571 13.8994 114.584 14.1851 114.574 14.4707L115.573 14.5056L116.572 14.5405C116.586 14.1508 116.569 13.771 116.53 13.4035L115.536 13.5086ZM115.573 14.5056L114.574 14.4707C114.565 14.7075 114.54 14.9464 114.503 15.19L115.491 15.3422L116.479 15.4943C116.526 15.1901 116.561 14.8714 116.572 14.5405L115.573 14.5056ZM115.491 15.3422L114.753 16.0172L117.202 18.6941L117.94 18.0191L118.678 17.3441L116.229 14.6671L115.491 15.3422ZM117.94 18.0191L117.092 17.4892L115.396 20.2041L116.244 20.734L117.092 21.2639L118.788 18.549L117.94 18.0191ZM116.244 20.734L116.489 19.7644L113.051 18.8968L112.806 19.8664L112.561 20.836L115.999 21.7036L116.244 20.734ZM112.806 19.8664L112.198 19.0726C111.571 19.5528 110.85 19.912 110.07 20.1186L110.326 21.0853L110.582 22.052C111.622 21.7764 112.582 21.2979 113.414 20.6603L112.806 19.8664ZM110.326 21.0853L109.372 20.7842L108.338 24.0587L109.292 24.3598L110.245 24.6609L111.279 21.3864L110.326 21.0853ZM109.292 24.3598L109.327 23.3604L106.127 23.2487L106.093 24.2481L106.058 25.2475L109.257 25.3592L109.292 24.3598ZM106.093 24.2481L107.055 23.975L105.956 20.1062L104.994 20.3793L104.032 20.6523L105.131 24.5211L106.093 24.2481ZM104.994 20.3793L105.494 19.5129C105.156 19.3179 104.839 19.0926 104.548 18.8399L103.892 19.5952L103.237 20.3506C103.626 20.688 104.047 20.9875 104.495 21.2456L104.994 20.3793ZM103.892 19.5952L103.676 18.6188L100.32 19.3615L100.536 20.3379L100.752 21.3143L104.108 20.5716L103.892 19.5952ZM100.536 20.3379L101.419 19.8685L99.9163 17.0418L99.0333 17.5113L98.1503 17.9807L99.6532 20.8074L100.536 20.3379ZM99.0333 17.5113L99.7509 18.2077L102.209 15.6748L101.491 14.9783L100.774 14.2819L98.3157 16.8149L99.0333 17.5113ZM101.491 14.9783L102.486 14.8778C102.459 14.6037 102.448 14.3268 102.458 14.0476L101.459 14.0128L100.459 13.9779C100.446 14.3524 100.46 14.72 100.496 15.0789L101.491 14.9783ZM101.459 14.0128L102.458 14.0477C102.473 13.6237 102.53 13.213 102.626 12.8194L101.654 12.5832L100.682 12.3469C100.555 12.873 100.479 13.4187 100.459 13.9779L101.459 14.0128ZM101.654 12.5832L102.392 11.9081L100.226 9.54105L99.4884 10.2161L98.7506 10.8911L100.916 13.2582L101.654 12.5832ZM99.4884 10.2161L100.336 10.746L102.033 8.03108L101.185 7.50118L100.337 6.97128L98.6403 9.6862L99.4884 10.2161ZM101.185 7.50118L100.94 8.47087L104.38 9.33753L104.624 8.36784L104.869 7.39815L101.429 6.53149L101.185 7.50118ZM104.624 8.36784L105.176 9.20178C105.702 8.85413 106.281 8.58623 106.897 8.41572L106.63 7.45193L106.364 6.48815C105.538 6.71648 104.768 7.07397 104.073 7.5339L104.624 8.36784ZM106.63 7.45193L107.577 7.77296L108.65 4.60731L107.703 4.28628L106.756 3.96526L105.683 7.13091L106.63 7.45193ZM107.703 4.28628L107.668 5.28567L110.867 5.39736L110.902 4.39797L110.936 3.39858L107.738 3.28689L107.703 4.28628ZM110.902 4.39797L109.934 4.65195L110.89 8.29104L111.857 8.03705L112.824 7.78306L111.869 4.14398L110.902 4.39797Z" fill="black" mask="url(#path-7-inside-3_767_6)"/>
<path d="M109.857 13.8668L109.812 15.1581L108.671 15.7651L107.575 15.0799L107.62 13.7887L108.761 13.1817L109.857 13.8668Z" stroke="black"/>
<mask id="path-10-inside-4_767_6" fill="white">
<path d="M304.364 3.1185C305.752 2.50088 307.377 3.12481 307.995 4.51222C308.374 5.36276 308.284 6.30186 307.839 7.04434C308.689 7.21087 309.446 7.77275 309.825 8.62317C310.443 10.0106 309.819 11.6361 308.431 12.2539C307.94 12.4727 307.419 12.5328 306.924 12.4614C306.362 12.433 305.495 12.2562 304.246 11.9283L265.044 29.3822L263.01 24.8145L301.207 7.80821C302.106 6.00587 302.611 4.96628 302.991 4.47514C303.26 3.89263 303.732 3.40012 304.364 3.1185Z"/>
</mask>
<path d="M304.364 3.1185C305.752 2.50088 307.377 3.12481 307.995 4.51222C308.374 5.36276 308.284 6.30186 307.839 7.04434C308.689 7.21087 309.446 7.77275 309.825 8.62317C310.443 10.0106 309.819 11.6361 308.431 12.2539C307.94 12.4727 307.419 12.5328 306.924 12.4614C306.362 12.433 305.495 12.2562 304.246 11.9283L265.044 29.3822L263.01 24.8145L301.207 7.80821C302.106 6.00587 302.611 4.96628 302.991 4.47514C303.26 3.89263 303.732 3.40012 304.364 3.1185Z" fill="white"/>
<path d="M304.364 3.1185L303.957 2.20492L303.957 2.20495L304.364 3.1185ZM307.995 4.51222L308.908 4.10548L308.908 4.10546L307.995 4.51222ZM307.839 7.04434L306.981 6.53079L306.251 7.75177L307.647 8.02564L307.839 7.04434ZM309.825 8.62317L310.739 8.21644L310.739 8.21633L309.825 8.62317ZM308.431 12.2539L308.838 13.1675L308.838 13.1674L308.431 12.2539ZM306.924 12.4614L307.066 11.4716L307.02 11.465L306.974 11.4627L306.924 12.4614ZM304.246 11.9283L304.5 10.9611L304.16 10.8719L303.839 11.0147L304.246 11.9283ZM265.044 29.3822L264.13 29.789L264.537 30.7025L265.45 30.2958L265.044 29.3822ZM263.01 24.8145L262.603 23.9009L261.69 24.3077L262.096 25.2212L263.01 24.8145ZM301.207 7.80821L301.613 8.72176L301.941 8.57579L302.101 8.25468L301.207 7.80821ZM302.991 4.47514L303.782 5.08671L303.851 4.99765L303.898 4.89551L302.991 4.47514ZM304.364 3.1185L304.771 4.03207C305.654 3.63901 306.688 4.03613 307.081 4.91898L307.995 4.51222L308.908 4.10546C308.066 2.2135 305.849 1.36275 303.957 2.20492L304.364 3.1185ZM307.995 4.51222L307.081 4.91896C307.321 5.45803 307.267 6.05436 306.981 6.53079L307.839 7.04434L308.698 7.55789C309.301 6.54936 309.426 5.26749 308.908 4.10548L307.995 4.51222ZM307.839 7.04434L307.647 8.02564C308.192 8.13247 308.672 8.49086 308.912 9.03001L309.825 8.62317L310.739 8.21633C310.221 7.05465 309.185 6.28928 308.032 6.06304L307.839 7.04434ZM309.825 8.62317L308.912 9.02991C309.305 9.91269 308.908 10.9472 308.025 11.3405L308.431 12.2539L308.838 13.1674C310.73 12.325 311.581 10.1085 310.739 8.21644L309.825 8.62317ZM308.431 12.2539L308.025 11.3404C307.714 11.4787 307.385 11.5175 307.066 11.4716L306.924 12.4614L306.781 13.4512C307.454 13.5481 308.166 13.4667 308.838 13.1675L308.431 12.2539ZM306.924 12.4614L306.974 11.4627C306.527 11.4401 305.751 11.2897 304.5 10.9611L304.246 11.9283L303.992 12.8955C305.238 13.2228 306.196 13.4259 306.873 13.4601L306.924 12.4614ZM304.246 11.9283L303.839 11.0147L264.637 28.4687L265.044 29.3822L265.45 30.2958L304.652 12.8418L304.246 11.9283ZM265.044 29.3822L265.957 28.9755L263.923 24.4078L263.01 24.8145L262.096 25.2212L264.13 29.789L265.044 29.3822ZM263.01 24.8145L263.417 25.728L301.613 8.72176L301.207 7.80821L300.8 6.89466L262.603 23.9009L263.01 24.8145ZM301.207 7.80821L302.101 8.25468C302.555 7.34606 302.899 6.64905 303.179 6.11373C303.466 5.56529 303.652 5.25467 303.782 5.08671L302.991 4.47514L302.199 3.86357C301.95 4.18676 301.693 4.6415 301.407 5.18622C301.115 5.74407 300.758 6.46803 300.312 7.36174L301.207 7.80821ZM302.991 4.47514L303.898 4.89551C304.071 4.52121 304.37 4.21029 304.771 4.03204L304.364 3.1185L303.957 2.20495C303.093 2.58996 302.449 3.26406 302.083 4.05477L302.991 4.47514Z" fill="black" mask="url(#path-10-inside-4_767_6)"/>
<path d="M263.733 22.8508C266.68 31.1497 270.239 35.2203 274.54 42.247C270.494 45.2519 264.551 47.9349 259.106 49.1094C256.671 41.281 256.234 35.8495 251.937 28.1026L263.733 22.8508Z" fill="white" stroke="black"/>
<mask id="path-13-inside-5_767_6" fill="white">
<path d="M9.04797 25.0973C9.45234 25.4196 9.80568 25.8314 10.0773 26.3346L12.7238 31.2379C13.9053 33.4278 12.8319 36.2204 10.3888 36.693C7.77403 37.1987 5.59799 37.1571 2.93958 36.6461C0.433662 36.1643 -0.729317 33.3137 0.482544 31.068L3.03723 26.3346C3.30883 25.8314 3.66216 25.4196 4.06653 25.0973V18.4537H9.04797V25.0973Z"/>
</mask>
<path d="M9.04797 25.0973H8.04797V25.579L8.42463 25.8792L9.04797 25.0973ZM10.0773 26.3346L10.9573 25.8596L10.9573 25.8596L10.0773 26.3346ZM12.7238 31.2379L13.6038 30.7631L13.6038 30.7629L12.7238 31.2379ZM10.3888 36.693L10.5787 37.6748L10.5787 37.6748L10.3888 36.693ZM2.93958 36.6461L2.75077 37.6281L2.75082 37.6281L2.93958 36.6461ZM0.482544 31.068L-0.397466 30.593L-0.397496 30.5931L0.482544 31.068ZM3.03723 26.3346L2.15723 25.8596L2.15722 25.8596L3.03723 26.3346ZM4.06653 25.0973L4.68987 25.8792L5.06653 25.579V25.0973H4.06653ZM4.06653 18.4537V17.4537H3.06653V18.4537H4.06653ZM9.04797 18.4537H10.048V17.4537H9.04797V18.4537ZM9.04797 25.0973L8.42463 25.8792C8.72511 26.1188 8.99056 26.4266 9.19727 26.8096L10.0773 26.3346L10.9573 25.8596C10.6208 25.2362 10.1796 24.7205 9.67132 24.3153L9.04797 25.0973ZM10.0773 26.3346L9.19727 26.8096L11.8438 31.7129L12.7238 31.2379L13.6038 30.7629L10.9573 25.8596L10.0773 26.3346ZM12.7238 31.2379L11.8437 31.7128C12.7598 33.4107 11.8695 35.388 10.1989 35.7112L10.3888 36.693L10.5787 37.6748C13.7942 37.0528 15.0508 33.4449 13.6038 30.7631L12.7238 31.2379ZM10.3888 36.693L10.1989 35.7112C7.72189 36.1903 5.67504 36.1536 3.12833 35.6641L2.93958 36.6461L2.75082 37.6281C5.52095 38.1606 7.82618 38.2072 10.5787 37.6748L10.3888 36.693ZM2.93958 36.6461L3.12838 35.6641C1.3673 35.3255 0.431006 33.2692 1.36258 31.5429L0.482544 31.068L-0.397496 30.5931C-1.88964 33.3582 -0.499977 37.0031 2.75077 37.6281L2.93958 36.6461ZM0.482544 31.068L1.36255 31.5429L3.91724 26.8095L3.03723 26.3346L2.15722 25.8596L-0.397466 30.593L0.482544 31.068ZM3.03723 26.3346L3.91723 26.8096C4.12394 26.4266 4.38939 26.1188 4.68987 25.8792L4.06653 25.0973L3.44318 24.3153C2.93494 24.7205 2.49371 25.2362 2.15723 25.8596L3.03723 26.3346ZM4.06653 25.0973H5.06653V18.4537H4.06653H3.06653V25.0973H4.06653ZM4.06653 18.4537V19.4537H9.04797V18.4537V17.4537H4.06653V18.4537ZM9.04797 18.4537H8.04797V25.0973H9.04797H10.048V18.4537H9.04797Z" fill="black" mask="url(#path-13-inside-5_767_6)"/>
<mask id="path-15-inside-6_767_6" fill="white">
<ellipse cx="6.55715" cy="28.8701" rx="4.75527" ry="0.905766"/>
</mask>
<ellipse cx="6.55715" cy="28.8701" rx="4.75527" ry="0.905766" fill="white"/>
<path d="M11.3124 28.8701H10.3124C10.3124 28.5504 10.4865 28.3654 10.5345 28.3207C10.5833 28.2752 10.5995 28.2787 10.5281 28.3109C10.3918 28.3723 10.1318 28.4522 9.73252 28.5283C8.95041 28.6772 7.82721 28.7759 6.55715 28.7759V29.7759V30.7759C7.91336 30.7759 9.1678 30.6718 10.1067 30.4929C10.568 30.4051 11.0044 30.2898 11.3494 30.1345C11.5186 30.0583 11.7216 29.948 11.8972 29.7846C12.0718 29.6221 12.3124 29.3149 12.3124 28.8701H11.3124ZM6.55715 29.7759V28.7759C5.2871 28.7759 4.1639 28.6772 3.38178 28.5283C2.98249 28.4522 2.7225 28.3723 2.58619 28.3109C2.51481 28.2787 2.53096 28.2752 2.57983 28.3207C2.6278 28.3654 2.80188 28.5504 2.80188 28.8701H1.80188H0.80188C0.80188 29.3149 1.04249 29.6221 1.21715 29.7846C1.39271 29.948 1.59571 30.0583 1.76495 30.1345C2.1099 30.2898 2.54631 30.4051 3.00755 30.4929C3.94651 30.6718 5.20094 30.7759 6.55715 30.7759V29.7759ZM1.80188 28.8701H2.80188C2.80188 29.1898 2.6278 29.3749 2.57983 29.4195C2.53096 29.465 2.51481 29.4615 2.58619 29.4294C2.7225 29.368 2.98249 29.288 3.38178 29.212C4.1639 29.063 5.2871 28.9644 6.55715 28.9644V27.9644V26.9644C5.20094 26.9644 3.94651 27.0685 3.00755 27.2473C2.54631 27.3352 2.1099 27.4504 1.76495 27.6057C1.59571 27.682 1.39271 27.7922 1.21715 27.9556C1.04249 28.1182 0.80188 28.4253 0.80188 28.8701H1.80188ZM6.55715 27.9644V28.9644C7.82721 28.9644 8.95041 29.063 9.73252 29.212C10.1318 29.288 10.3918 29.368 10.5281 29.4294C10.5995 29.4615 10.5833 29.465 10.5345 29.4195C10.4865 29.3749 10.3124 29.1898 10.3124 28.8701H11.3124H12.3124C12.3124 28.4253 12.0718 28.1182 11.8972 27.9556C11.7216 27.7922 11.5186 27.682 11.3494 27.6057C11.0044 27.4504 10.568 27.3352 10.1067 27.2473C9.1678 27.0685 7.91336 26.9644 6.55715 26.9644V27.9644Z" fill="black" mask="url(#path-15-inside-6_767_6)"/>
<line x1="6.33374" y1="7.33374" x2="6.33374" y2="6.67572e-05" stroke="black"/>
<mask id="path-18-inside-7_767_6" fill="white">
<path d="M8.30066 8.45679L14.1678 11.4421L13.0673 13.9343L8.30066 12.2283V17.6013H4.63367V6.60034H8.30066V8.45679Z"/>
</mask>
<path d="M8.30066 8.45679L14.1678 11.4421L13.0673 13.9343L8.30066 12.2283V17.6013H4.63367V6.60034H8.30066V8.45679Z" fill="white"/>
<path d="M8.30066 8.45679H7.30066V9.06997L7.84717 9.34805L8.30066 8.45679ZM14.1678 11.4421L15.0826 11.8461L15.465 10.9802L14.6213 10.5509L14.1678 11.4421ZM13.0673 13.9343L12.7303 14.8758L13.6062 15.1893L13.982 14.3383L13.0673 13.9343ZM8.30066 12.2283L8.63764 11.2868L7.30066 10.8082V12.2283H8.30066ZM8.30066 17.6013V18.6013H9.30066V17.6013H8.30066ZM4.63367 17.6013H3.63367V18.6013H4.63367V17.6013ZM4.63367 6.60034V5.60034H3.63367V6.60034H4.63367ZM8.30066 6.60034H9.30066V5.60034H8.30066V6.60034ZM8.30066 8.45679L7.84717 9.34805L13.7144 12.3334L14.1678 11.4421L14.6213 10.5509L8.75415 7.56553L8.30066 8.45679ZM14.1678 11.4421L13.2531 11.0382L12.1525 13.5304L13.0673 13.9343L13.982 14.3383L15.0826 11.8461L14.1678 11.4421ZM13.0673 13.9343L13.4042 12.9928L8.63764 11.2868L8.30066 12.2283L7.96368 13.1698L12.7303 14.8758L13.0673 13.9343ZM8.30066 12.2283H7.30066V17.6013H8.30066H9.30066V12.2283H8.30066ZM8.30066 17.6013V16.6013H4.63367V17.6013V18.6013H8.30066V17.6013ZM4.63367 17.6013H5.63367V6.60034H4.63367H3.63367V17.6013H4.63367ZM4.63367 6.60034V7.60034H8.30066V6.60034V5.60034H4.63367V6.60034ZM8.30066 6.60034H7.30066V8.45679H8.30066H9.30066V6.60034H8.30066Z" fill="black" mask="url(#path-18-inside-7_767_6)"/>
<mask id="path-20-inside-8_767_6" fill="white">
<path d="M36.005 19.6192C36.4283 19.7989 36.6625 20.2358 36.6048 20.6705L39.094 21.7271C39.6022 21.943 39.8394 22.53 39.6237 23.0383L38.9724 24.5728C38.7566 25.0811 38.1694 25.3182 37.6611 25.1026L35.172 24.046C34.8994 24.3894 34.4223 24.5245 33.9991 24.3449L16.2632 16.8164C15.84 16.6368 15.6059 16.1998 15.6634 15.7651L13.1743 14.7085C12.6659 14.4927 12.4288 13.9056 12.6445 13.3973L13.2959 11.8628C13.5117 11.3545 14.0987 11.1173 14.6071 11.333L17.0962 12.3896C17.3689 12.0462 17.8459 11.9111 18.2691 12.0908L36.005 19.6192Z"/>
</mask>
<path d="M36.005 19.6192C36.4283 19.7989 36.6625 20.2358 36.6048 20.6705L39.094 21.7271C39.6022 21.943 39.8394 22.53 39.6237 23.0383L38.9724 24.5728C38.7566 25.0811 38.1694 25.3182 37.6611 25.1026L35.172 24.046C34.8994 24.3894 34.4223 24.5245 33.9991 24.3449L16.2632 16.8164C15.84 16.6368 15.6059 16.1998 15.6634 15.7651L13.1743 14.7085C12.6659 14.4927 12.4288 13.9056 12.6445 13.3973L13.2959 11.8628C13.5117 11.3545 14.0987 11.1173 14.6071 11.333L17.0962 12.3896C17.3689 12.0462 17.8459 11.9111 18.2691 12.0908L36.005 19.6192Z" fill="white"/>
<path d="M36.005 19.6192L36.3959 18.6987L36.3958 18.6987L36.005 19.6192ZM36.6048 20.6705L35.6135 20.539L35.5134 21.2936L36.2141 21.591L36.6048 20.6705ZM39.094 21.7271L39.4849 20.8067L39.4847 20.8066L39.094 21.7271ZM39.6237 23.0383L40.5442 23.4291L40.5443 23.429L39.6237 23.0383ZM38.9724 24.5728L39.8929 24.9636L39.8929 24.9635L38.9724 24.5728ZM37.6611 25.1026L37.2704 26.0231L37.2706 26.0232L37.6611 25.1026ZM35.172 24.046L35.5627 23.1255L34.8622 22.8281L34.3889 23.4241L35.172 24.046ZM33.9991 24.3449L33.6084 25.2654L33.6085 25.2654L33.9991 24.3449ZM16.2632 16.8164L16.6539 15.8959L16.2632 16.8164ZM15.6634 15.7651L16.6548 15.8964L16.7547 15.1419L16.0541 14.8446L15.6634 15.7651ZM13.1743 14.7085L12.7835 15.629L13.1743 14.7085ZM12.6445 13.3973L11.724 13.0066L11.724 13.0066L12.6445 13.3973ZM13.2959 11.8628L12.3754 11.472L12.3753 11.4721L13.2959 11.8628ZM14.6071 11.333L14.2164 12.2535L14.6071 11.333ZM17.0962 12.3896L16.7055 13.3101L17.4061 13.6075L17.8794 13.0114L17.0962 12.3896ZM18.2691 12.0908L18.6599 11.1702L18.2691 12.0908ZM36.005 19.6192L35.6142 20.5397L35.6135 20.539L36.6048 20.6705L37.5961 20.802C37.7112 19.9347 37.2451 19.0593 36.3959 18.6987L36.005 19.6192ZM36.6048 20.6705L36.2141 21.591L38.7032 22.6476L39.094 21.7271L39.4847 20.8066L36.9955 19.75L36.6048 20.6705ZM39.094 21.7271L38.703 22.6475L38.7032 22.6477L39.6237 23.0383L40.5443 23.429C40.9758 22.4122 40.5011 21.2383 39.4849 20.8067L39.094 21.7271ZM39.6237 23.0383L38.7032 22.6476L38.0519 24.1821L38.9724 24.5728L39.8929 24.9635L40.5442 23.4291L39.6237 23.0383ZM38.9724 24.5728L38.0519 24.182L38.0517 24.182L37.6611 25.1026L37.2706 26.0232C38.287 26.4543 39.4612 25.9803 39.8929 24.9636L38.9724 24.5728ZM37.6611 25.1026L38.0519 24.1821L35.5627 23.1255L35.172 24.046L34.7813 24.9665L37.2704 26.0231L37.6611 25.1026ZM35.172 24.046L34.3889 23.4241L34.3897 23.4243L33.9991 24.3449L33.6085 25.2654C34.4579 25.6259 35.4113 25.3528 35.9551 24.6679L35.172 24.046ZM33.9991 24.3449L34.3898 23.4244L16.6539 15.8959L16.2632 16.8164L15.8725 17.7369L33.6084 25.2654L33.9991 24.3449ZM16.2632 16.8164L16.6539 15.8959L16.6548 15.8964L15.6634 15.7651L14.6721 15.6338C14.5573 16.5006 15.0228 17.3763 15.8725 17.7369L16.2632 16.8164ZM15.6634 15.7651L16.0541 14.8446L13.565 13.788L13.1743 14.7085L12.7835 15.629L15.2727 16.6856L15.6634 15.7651ZM13.1743 14.7085L13.565 13.788L13.565 13.7879L12.6445 13.3973L11.724 13.0066C11.2925 14.0233 11.7667 15.1974 12.7835 15.629L13.1743 14.7085ZM12.6445 13.3973L13.565 13.788L14.2164 12.2535L13.2959 11.8628L12.3753 11.4721L11.724 13.0066L12.6445 13.3973ZM13.2959 11.8628L14.2163 12.2536L14.2164 12.2535L14.6071 11.333L14.9978 10.4125C13.981 9.98093 12.807 10.4554 12.3754 11.472L13.2959 11.8628ZM14.6071 11.333L14.2164 12.2535L16.7055 13.3101L17.0962 12.3896L17.487 11.4691L14.9978 10.4125L14.6071 11.333ZM17.0962 12.3896L17.8794 13.0114C17.8786 13.0124 17.879 13.0116 17.8806 13.0111C17.8809 13.011 17.8804 13.0112 17.8791 13.0111C17.8775 13.011 17.8769 13.0106 17.8784 13.0113L18.2691 12.0908L18.6599 11.1702C17.8103 10.8096 16.8569 11.0828 16.3131 11.7678L17.0962 12.3896ZM18.2691 12.0908L17.8784 13.0113L35.6143 20.5397L36.005 19.6192L36.3958 18.6987L18.6599 11.1702L18.2691 12.0908Z" fill="black" mask="url(#path-20-inside-8_767_6)"/>
<path d="M4.16699 16.6342H8.76758C9.04359 16.6343 9.26758 16.8581 9.26758 17.1342V18.8011C9.26749 19.0771 9.04354 19.301 8.76758 19.3011H4.16699C3.8909 19.3011 3.66708 19.0772 3.66699 18.8011V17.1342C3.66699 16.8924 3.83844 16.6904 4.06641 16.6439L4.16699 16.6342Z" fill="white" stroke="black"/>
<path d="M39.3688 33.135H48.3698C48.6457 33.1353 48.8698 33.359 48.8698 33.635V44.8528C48.8697 46.0502 48.0307 47.071 46.8854 47.2356C44.7222 47.5465 42.9717 47.5526 40.8326 47.2424C39.6977 47.0777 38.8689 46.0625 38.8688 44.8713V33.635L38.8785 33.5344C38.9251 33.3065 39.1271 33.135 39.3688 33.135Z" fill="white" stroke="black"/>
<path d="M44.7573 32.0349C46.2892 32.0349 47.1289 32.1786 47.8325 32.4128C48.1907 32.5321 48.5244 32.6785 48.9126 32.8562C49.07 32.9282 49.2369 33.0043 49.4155 33.0857C49.2295 33.1593 49.014 33.2384 48.772 33.3162C47.7255 33.6523 46.2579 33.9685 44.7573 33.9685C43.2224 33.9685 41.6615 33.8069 40.4966 33.5505C39.9107 33.4216 39.4507 33.2741 39.1489 33.1248C39.0565 33.079 38.9894 33.0355 38.9409 33.0007C38.9894 32.9661 39.057 32.9242 39.1489 32.8787C39.4507 32.7293 39.9107 32.5819 40.4966 32.4529C41.6615 32.1965 43.2224 32.0349 44.7573 32.0349Z" fill="white" stroke="black"/>
<mask id="path-25-inside-9_767_6" fill="white">
<path d="M38.0018 21.9597C38.2176 21.4514 38.805 21.2146 39.3134 21.4304L44.8983 23.8005C45.1246 23.8966 45.2965 24.0667 45.3993 24.2703C45.61 24.4833 45.7253 24.7885 45.6796 25.113L44.6171 32.6462C44.5474 33.1396 44.1251 33.5066 43.6268 33.5066H43.5409C42.9886 33.5066 42.5409 33.0588 42.5409 32.5066V27.5798L37.5936 25.4802C37.0856 25.2643 36.8488 24.6778 37.0643 24.1697L38.0018 21.9597Z"/>
</mask>
<path d="M38.0018 21.9597C38.2176 21.4514 38.805 21.2146 39.3134 21.4304L44.8983 23.8005C45.1246 23.8966 45.2965 24.0667 45.3993 24.2703C45.61 24.4833 45.7253 24.7885 45.6796 25.113L44.6171 32.6462C44.5474 33.1396 44.1251 33.5066 43.6268 33.5066H43.5409C42.9886 33.5066 42.5409 33.0588 42.5409 32.5066V27.5798L37.5936 25.4802C37.0856 25.2643 36.8488 24.6778 37.0643 24.1697L38.0018 21.9597Z" fill="white"/>
<path d="M38.0018 21.9597L37.0813 21.569L37.0812 21.5692L38.0018 21.9597ZM39.3134 21.4304L38.9226 22.3509L38.9227 22.351L39.3134 21.4304ZM44.8983 23.8005L45.2892 22.8801L45.289 22.88L44.8983 23.8005ZM45.3993 24.2703L44.5066 24.721L44.5776 24.8616L44.6884 24.9735L45.3993 24.2703ZM45.6796 25.113L46.6698 25.2527L46.6698 25.2527L45.6796 25.113ZM44.6171 32.6462L45.6072 32.786L45.6073 32.7859L44.6171 32.6462ZM42.5409 32.5066H41.5409V32.5067L42.5409 32.5066ZM42.5409 27.5798H43.5409V26.9179L42.9316 26.6593L42.5409 27.5798ZM37.5936 25.4802L37.2025 26.4006L37.203 26.4008L37.5936 25.4802ZM37.0643 24.1697L36.1437 23.7791L36.1437 23.7793L37.0643 24.1697ZM38.0018 21.9597L38.9223 22.3505L38.9226 22.3509L39.3134 21.4304L39.7041 20.5099C38.6882 20.0787 37.5133 20.5513 37.0813 21.569L38.0018 21.9597ZM39.3134 21.4304L38.9227 22.351L44.5077 24.7211L44.8983 23.8005L45.289 22.88L39.704 20.5099L39.3134 21.4304ZM44.8983 23.8005L44.5074 24.721L44.5066 24.721L45.3993 24.2703L46.292 23.8196C46.0877 23.415 45.743 23.0728 45.2892 22.8801L44.8983 23.8005ZM45.3993 24.2703L44.6884 24.9735L44.6894 24.9734L45.6796 25.113L46.6698 25.2527C46.7616 24.6017 46.5279 23.9892 46.1102 23.567L45.3993 24.2703ZM45.6796 25.113L44.6894 24.9734L43.6269 32.5066L44.6171 32.6462L45.6073 32.7859L46.6698 25.2527L45.6796 25.113ZM44.6171 32.6462L43.6269 32.5064L43.6268 32.5066V33.5066V34.5066C44.6235 34.5066 45.468 33.7726 45.6072 32.786L44.6171 32.6462ZM43.6268 33.5066V32.5066H43.5409V33.5066V34.5066H43.6268V33.5066ZM43.5409 33.5066V32.5066V32.5065L42.5409 32.5066L41.5409 32.5067C41.541 33.611 42.4363 34.5066 43.5409 34.5066V33.5066ZM42.5409 32.5066H43.5409V27.5798H42.5409H41.5409V32.5066H42.5409ZM42.5409 27.5798L42.9316 26.6593L37.9843 24.5597L37.5936 25.4802L37.203 26.4008L42.1502 28.5004L42.5409 27.5798ZM37.5936 25.4802L37.9848 24.5599L37.985 24.5601L37.0643 24.1697L36.1437 23.7793C35.7128 24.7954 36.1863 25.9687 37.2025 26.4006L37.5936 25.4802ZM37.0643 24.1697L37.9849 24.5602L38.9224 22.3502L38.0018 21.9597L37.0812 21.5692L36.1437 23.7791L37.0643 24.1697Z" fill="black" mask="url(#path-25-inside-9_767_6)"/>
<rect x="171.5" y="10.8645" width="49.5217" height="26.4356" stroke="black"/>
<rect x="176.853" y="18.5599" width="38.8151" height="26.4356" fill="white" stroke="black"/>
<path d="M184.39 32.4961C185.214 31.8125 185.179 29.8053 184.331 29.1508C183.483 28.4964 184.301 27.4224 184.296 27.1437L185.133 27.1291" stroke="black"/>
<path d="M186.592 31.686C187.227 30.8231 186.707 28.8841 185.726 28.4542C184.745 28.0243 185.279 26.7844 185.207 26.5151L186.015 26.2986" stroke="black"/>
<path d="M182.209 21.7483C182.778 21.483 183.43 21.6145 183.797 22.0604C184.845 23.3334 185.359 24.4488 185.671 26.1004C185.777 26.6668 185.463 27.2487 184.899 27.5119C184.123 27.8736 183.178 27.465 182.854 26.608C182.506 25.6911 182.11 24.8474 181.575 23.9006C181.125 23.1055 181.424 22.1141 182.209 21.7483Z" fill="white" stroke="black"/>
<path d="M206.003 32.7503C204.933 32.8 203.753 34.4241 204.036 35.4571C204.319 36.4901 203.02 36.8556 202.856 37.0812L202.179 36.5895" stroke="black"/>
<path d="M203.756 32.0718C202.73 32.3789 201.978 34.2402 202.503 35.174C203.028 36.1078 201.855 36.7768 201.751 37.0353L200.975 36.722" stroke="black"/>
<path d="M201.276 42.6463C200.661 42.5155 200.22 42.0182 200.195 41.4412C200.124 39.7938 200.386 38.5941 201.131 37.0874C201.386 36.5707 201.988 36.2953 202.596 36.4245C203.433 36.6025 203.943 37.4976 203.686 38.3773C203.411 39.3185 203.22 40.2307 203.078 41.3091C202.958 42.2146 202.123 42.8263 201.276 42.6463Z" fill="white" stroke="black"/>
<path d="M193.362 28.0219C193.17 26.9681 194.487 25.453 195.557 25.4968C196.627 25.5405 196.691 24.1921 196.874 23.9817L196.243 23.4329" stroke="black"/>
<path d="M192.196 25.9857C192.264 24.9167 193.909 23.7653 194.937 24.0667C195.965 24.368 196.353 23.0751 196.581 22.9152L196.101 22.23" stroke="black"/>
<path d="M201.941 21.1902C201.676 20.621 201.092 20.3028 200.524 20.4084C198.903 20.7099 197.793 21.2346 196.492 22.2992C196.046 22.6643 195.913 23.3124 196.176 23.8765C196.538 24.6521 197.524 24.9467 198.324 24.4988C199.179 24.0195 200.025 23.6279 201.044 23.2466C201.899 22.9265 202.307 21.9748 201.941 21.1902Z" fill="white" stroke="black"/>
<path d="M186.147 39.9854C187.206 40.1408 188.675 38.7717 188.594 37.7036C188.513 36.6355 189.858 36.5247 190.062 36.3345L190.632 36.9462" stroke="black"/>
<path d="M188.43 41.5075C189.471 41.2545 190.319 39.4351 189.844 38.4752C189.368 37.5152 190.574 36.9085 190.692 36.6558L191.45 37.0093" stroke="black"/>
<rect x="191.725" y="31.1788" width="2.68039" height="6.36078" rx="1.3402" transform="rotate(31 191.725 31.1788)" fill="white" stroke="black"/>
<path d="M205.789 24.5064C205.523 25.5442 206.731 27.1474 207.802 27.1785C208.873 27.2095 208.843 28.559 209.01 28.7817L208.342 29.2851" stroke="black"/>
<path d="M204.036 26.6179C204.179 27.6795 205.9 28.7134 206.904 28.3411C207.909 27.9688 208.386 29.2314 208.625 29.3751L208.194 30.092" stroke="black"/>
<rect x="213.964" y="30.975" width="2.68039" height="6.36078" rx="1.34019" transform="rotate(127 213.964 30.975)" fill="white" stroke="black"/>
<rect x="192.579" y="2.5" width="7.02994" height="12.3832" fill="white" stroke="black"/>
<mask id="path-45-inside-10_767_6" fill="white">
<path d="M196.932 8.05493H198.738L197.67 9.52759H197.666L195.111 13.0413L196.168 9.52759H193.752L195.792 6.01489H198.511L196.932 8.05493Z"/>
</mask>
<path d="M196.932 8.05493L196.141 7.44283L194.894 9.05493H196.932V8.05493ZM198.738 8.05493L199.547 8.64215L200.699 7.05493H198.738V8.05493ZM197.67 9.52759V10.5276H198.18L198.479 10.1148L197.67 9.52759ZM197.666 9.52759V8.52759H197.156L196.857 8.93952L197.666 9.52759ZM195.111 13.0413L194.153 12.7533L195.92 13.6293L195.111 13.0413ZM196.168 9.52759L197.125 9.81557L197.513 8.52759H196.168V9.52759ZM193.752 9.52759L192.887 9.02538L192.014 10.5276H193.752V9.52759ZM195.792 6.01489V5.01489H195.216L194.927 5.51268L195.792 6.01489ZM198.511 6.01489L199.302 6.627L200.55 5.01489H198.511V6.01489ZM196.932 8.05493V9.05493H198.738V8.05493V7.05493H196.932V8.05493ZM198.738 8.05493L197.928 7.46772L196.86 8.94037L197.67 9.52759L198.479 10.1148L199.547 8.64215L198.738 8.05493ZM197.67 9.52759V8.52759H197.666V9.52759V10.5276H197.67V9.52759ZM197.666 9.52759L196.857 8.93952L194.302 12.4532L195.111 13.0413L195.92 13.6293L198.474 10.1157L197.666 9.52759ZM195.111 13.0413L196.069 13.3292L197.125 9.81557L196.168 9.52759L195.21 9.23961L194.153 12.7533L195.111 13.0413ZM196.168 9.52759V8.52759H193.752V9.52759V10.5276H196.168V9.52759ZM193.752 9.52759L194.616 10.0298L196.656 6.5171L195.792 6.01489L194.927 5.51268L192.887 9.02538L193.752 9.52759ZM195.792 6.01489V7.01489H198.511V6.01489V5.01489H195.792V6.01489ZM198.511 6.01489L197.721 5.40279L196.141 7.44283L196.932 8.05493L197.723 8.66704L199.302 6.627L198.511 6.01489Z" fill="black" mask="url(#path-45-inside-10_767_6)"/>
</svg>
